<?xml version="1.0" encoding="UTF-8" standalone="no"?>
<svg
   xmlns:dc="http://purl.org/dc/elements/1.1/"
   xmlns:cc="http://creativecommons.org/ns#"
   xmlns:rdf="http://www.w3.org/1999/02/22-rdf-syntax-ns#"
   xmlns:svg="http://www.w3.org/2000/svg"
   xmlns="http://www.w3.org/2000/svg"
   xmlns:sodipodi="http://sodipodi.sourceforge.net/DTD/sodipodi-0.dtd"
   xmlns:inkscape="http://www.inkscape.org/namespaces/inkscape"
   width="20.996431"
   height="24.375"
   viewBox="0 0 16.797145 19.5"
   version="1.2"
   id="svg2"
   inkscape:version="0.48.4 r9939"
   sodipodi:docname="25.101.svg">
  <metadata
     id="metadata46">
    <rdf:RDF>
      <cc:Work
         rdf:about="">
        <dc:format>image/svg+xml</dc:format>
        <dc:type
           rdf:resource="http://purl.org/dc/dcmitype/StillImage" />
      </cc:Work>
    </rdf:RDF>
  </metadata>
  <sodipodi:namedview
     pagecolor="#ffffff"
     bordercolor="#666666"
     borderopacity="1"
     objecttolerance="10"
     gridtolerance="10"
     guidetolerance="10"
     inkscape:pageopacity="0"
     inkscape:pageshadow="2"
     inkscape:window-width="640"
     inkscape:window-height="480"
     id="namedview44"
     showgrid="false"
     inkscape:zoom="0.22422803"
     inkscape:cx="10.371431"
     inkscape:cy="-344.65563"
     inkscape:window-x="496"
     inkscape:window-y="342"
     inkscape:window-maximized="0"
     inkscape:current-layer="svg2"
     fit-margin-top="0"
     fit-margin-left="0"
     fit-margin-right="0"
     fit-margin-bottom="0" />
  <defs
     id="defs4">
    <clipPath
       id="clip1">
      <path
         d="m 0,0.101562 595,0 0,841.796878 -595,0 z m 0,0"
         id="path7"
         inkscape:connector-curvature="0" />
    </clipPath>
    <clipPath
       id="clip2">
      <path
         d="m 297,411.19922 2,0 0,5.80078 -2,0 z m 0,0"
         id="path10"
         inkscape:connector-curvature="0" />
    </clipPath>
    <clipPath
       id="clip3">
      <path
         d="m 297,425 2,0 0,5.69922 -2,0 z m 0,0"
         id="path13"
         inkscape:connector-curvature="0" />
    </clipPath>
    <clipPath
       id="clip4">
      <path
         d="m 301,420 5,0 0,2 -5,0 z m 0,0"
         id="path16"
         inkscape:connector-curvature="0" />
    </clipPath>
    <clipPath
       id="clip5">
      <path
         d="m 289.19922,420 5.80078,0 0,2 -5.80078,0 z m 0,0"
         id="path19"
         inkscape:connector-curvature="0" />
    </clipPath>
  </defs>
  <g
     id="g26"
     clip-rule="nonzero"
     clip-path="url(#clip2)"
     transform="translate(-289.20286,-411.19922)">
    <path
       inkscape:connector-curvature="0"
       id="path28"
       transform="matrix(1,0,0,-1,0,842)"
       d="m 298.10156,425.80078 0,5"
       style="fill:none;stroke:#000000;stroke-width:0.59429002;stroke-linecap:butt;stroke-linejoin:round;stroke-miterlimit:10;stroke-opacity:1" />
  </g>
  <g
     id="g30"
     clip-rule="nonzero"
     clip-path="url(#clip3)"
     transform="translate(-289.20286,-411.19922)">
    <path
       inkscape:connector-curvature="0"
       id="path32"
       transform="matrix(1,0,0,-1,0,842)"
       d="m 298.10156,411.30078 0,5"
       style="fill:none;stroke:#000000;stroke-width:0.59429002;stroke-linecap:butt;stroke-linejoin:round;stroke-miterlimit:10;stroke-opacity:1" />
  </g>
  <g
     id="g34"
     clip-rule="nonzero"
     clip-path="url(#clip4)"
     transform="translate(-289.20286,-411.19922)">
    <path
       inkscape:connector-curvature="0"
       id="path36"
       transform="matrix(1,0,0,-1,0,842)"
       d="m 306.30078,421.10156 -5,0"
       style="fill:none;stroke:#000000;stroke-width:0.59429002;stroke-linecap:butt;stroke-linejoin:round;stroke-miterlimit:10;stroke-opacity:1" />
  </g>
  <g
     id="g38"
     clip-rule="nonzero"
     clip-path="url(#clip5)"
     transform="translate(-289.20286,-411.19922)">
    <path
       inkscape:connector-curvature="0"
       id="path40"
       transform="matrix(1,0,0,-1,0,842)"
       d="m 294.5,421.10156 -5,0"
       style="fill:none;stroke:#000000;stroke-width:0.59429002;stroke-linecap:butt;stroke-linejoin:round;stroke-miterlimit:10;stroke-opacity:1" />
  </g>
  <path
     inkscape:connector-curvature="0"
     id="path42"
     d="m 5.5979232,9.699222 c 0,2.40234 1.5,4.40234 3.30078,4.40234 1.6992198,0 2.8984398,-2 2.8984398,-4.40234 0,-2.29688 -1.19922,-4.39844 -2.8984398,-4.39844 -1.80078,0 -3.30078,2.10156 -3.30078,4.39844 z m 0,0"
     style="fill:#ffffff;fill-opacity:1;fill-rule:evenodd;stroke:#000000;stroke-width:0.1;stroke-linecap:butt;stroke-linejoin:miter;stroke-miterlimit:10;stroke-opacity:1" />
</svg>
