<?xml version="1.0" encoding="UTF-8" standalone="no"?>
<svg
   xmlns:dc="http://purl.org/dc/elements/1.1/"
   xmlns:cc="http://creativecommons.org/ns#"
   xmlns:rdf="http://www.w3.org/1999/02/22-rdf-syntax-ns#"
   xmlns:svg="http://www.w3.org/2000/svg"
   xmlns="http://www.w3.org/2000/svg"
   xmlns:sodipodi="http://sodipodi.sourceforge.net/DTD/sodipodi-0.dtd"
   xmlns:inkscape="http://www.inkscape.org/namespaces/inkscape"
   width="743.75"
   height="1052.2461"
   viewBox="0 0 595 841.79688"
   version="1.2"
   id="svg3209"
   inkscape:version="0.48.4 r9939"
   sodipodi:docname="25.70.svg">
  <metadata
     id="metadata3231">
    <rdf:RDF>
      <cc:Work
         rdf:about="">
        <dc:format>image/svg+xml</dc:format>
        <dc:type
           rdf:resource="http://purl.org/dc/dcmitype/StillImage" />
      </cc:Work>
    </rdf:RDF>
  </metadata>
  <sodipodi:namedview
     pagecolor="#ffffff"
     bordercolor="#666666"
     borderopacity="1"
     objecttolerance="10"
     gridtolerance="10"
     guidetolerance="10"
     inkscape:pageopacity="0"
     inkscape:pageshadow="2"
     inkscape:window-width="640"
     inkscape:window-height="480"
     id="namedview3229"
     showgrid="false"
     inkscape:zoom="0.22422803"
     inkscape:cx="371.875"
     inkscape:cy="526.12305"
     inkscape:window-x="0"
     inkscape:window-y="27"
     inkscape:window-maximized="0"
     inkscape:current-layer="svg3209" />
  <defs
     id="defs3211">
    <clipPath
       id="clip1">
      <path
         d="m 0,0.101562 595,0 0,841.796878 -595,0 z m 0,0"
         id="path3214"
         inkscape:connector-curvature="0" />
    </clipPath>
  </defs>
  <g
     id="surface1"
     transform="translate(0,-0.101562)">
    <g
       clip-path="url(#clip1)"
       clip-rule="nonzero"
       id="g3217">
      <path
         style="fill:#ffffff;fill-opacity:1;fill-rule:evenodd;stroke:none"
         d="m 0,0 595.19922,0 0,841.89844 -595.19922,0 z m 0,0"
         id="path3219"
         inkscape:connector-curvature="0" />
    </g>
    <path
       style="fill:#000000;fill-opacity:1;fill-rule:evenodd;stroke:none"
       d="m 312.39844,420.30078 c -20.39844,-5 -20.39844,-5 -20.39844,-5 0,10.39844 0,10.39844 0,10.39844 20.39844,-5.39844 20.39844,-5.39844 20.39844,-5.39844 z m 0,0"
       id="path3221"
       inkscape:connector-curvature="0" />
    <path
       style="fill:none;stroke:#000000;stroke-width:0.59429002;stroke-linecap:butt;stroke-linejoin:round;stroke-miterlimit:10;stroke-opacity:1"
       d="m 288.5,416.30078 z m 0,0"
       transform="matrix(1,0,0,-1,0,842)"
       id="path3223"
       inkscape:connector-curvature="0" />
    <path
       style="fill:none;stroke:#000000;stroke-width:1.18859005;stroke-linecap:butt;stroke-linejoin:round;stroke-miterlimit:10;stroke-opacity:1"
       d="m 292,421.69922 -9.10156,0"
       transform="matrix(1,0,0,-1,0,842)"
       id="path3225"
       inkscape:connector-curvature="0" />
    <path
       style="fill:#ffffff;fill-opacity:1;fill-rule:evenodd;stroke:none"
       d="m 309.10156,420.30078 c -15.90234,-4.10156 -15.90234,-4.10156 -15.90234,-4.10156 0,8.30078 0,8.30078 0,8.30078 15.90234,-4.19922 15.90234,-4.19922 15.90234,-4.19922 z m 0,0"
       id="path3227"
       inkscape:connector-curvature="0" />
  </g>
</svg>
