<?xml version="1.0" encoding="UTF-8" standalone="no"?>
<svg
   xmlns:dc="http://purl.org/dc/elements/1.1/"
   xmlns:cc="http://creativecommons.org/ns#"
   xmlns:rdf="http://www.w3.org/1999/02/22-rdf-syntax-ns#"
   xmlns:svg="http://www.w3.org/2000/svg"
   xmlns="http://www.w3.org/2000/svg"
   xmlns:sodipodi="http://sodipodi.sourceforge.net/DTD/sodipodi-0.dtd"
   xmlns:inkscape="http://www.inkscape.org/namespaces/inkscape"
   width="27.626949"
   height="33.125"
   viewBox="0 0 22.101559 26.5"
   version="1.2"
   id="svg3369"
   inkscape:version="0.48.4 r9939"
   sodipodi:docname="25.85.svg">
  <metadata
     id="metadata3413">
    <rdf:RDF>
      <cc:Work
         rdf:about="">
        <dc:format>image/svg+xml</dc:format>
        <dc:type
           rdf:resource="http://purl.org/dc/dcmitype/StillImage" />
      </cc:Work>
    </rdf:RDF>
  </metadata>
  <sodipodi:namedview
     pagecolor="#ffffff"
     bordercolor="#666666"
     borderopacity="1"
     objecttolerance="10"
     gridtolerance="10"
     guidetolerance="10"
     inkscape:pageopacity="0"
     inkscape:pageshadow="2"
     inkscape:window-width="640"
     inkscape:window-height="480"
     id="namedview3411"
     showgrid="false"
     inkscape:zoom="0.22422803"
     inkscape:cx="13.75"
     inkscape:cy="16.625976"
     inkscape:window-x="0"
     inkscape:window-y="27"
     inkscape:window-maximized="0"
     inkscape:current-layer="svg3369" />
  <defs
     id="defs3371">
    <clipPath
       id="clip1">
      <path
         d="m 0,0.101562 595,0 0,841.796878 -595,0 z m 0,0"
         id="path3374"
         inkscape:connector-curvature="0" />
    </clipPath>
    <clipPath
       id="clip2">
      <path
         d="m 301,420 7.60156,0 0,2 L 301,422 z m 0,0"
         id="path3377"
         inkscape:connector-curvature="0" />
    </clipPath>
    <clipPath
       id="clip3">
      <path
         d="m 286.5,420 7.5,0 0,2 -7.5,0 z m 0,0"
         id="path3380"
         inkscape:connector-curvature="0" />
    </clipPath>
    <clipPath
       id="clip4">
      <path
         d="m 296,407.80078 2,0 0,7.19922 -2,0 z m 0,0"
         id="path3383"
         inkscape:connector-curvature="0" />
    </clipPath>
    <clipPath
       id="clip5">
      <path
         d="m 296,426 2,0 0,8.30078 -2,0 z m 0,0"
         id="path3386"
         inkscape:connector-curvature="0" />
    </clipPath>
  </defs>
  <path
     inkscape:connector-curvature="0"
     id="path3393"
     d="m 15.101558,12.800782 c 0,3.59766 -2.10156,6.5 -4.10156,6.5 -2.3984398,0 -4.4999998,-2.90234 -4.4999998,-6.5 0,-3.20312 2.10156,-6.20312 4.4999998,-6.20312 2,0 4.10156,3 4.10156,6.20312 z m 0,0"
     style="fill:none;stroke:#000000;stroke-width:0.87730002;stroke-linecap:butt;stroke-linejoin:round;stroke-miterlimit:10;stroke-opacity:1" />
  <g
     id="g3395"
     clip-rule="nonzero"
     clip-path="url(#clip2)"
     transform="translate(-286.5,-407.80078)">
    <path
       inkscape:connector-curvature="0"
       id="path3397"
       transform="matrix(1,0,0,-1,0,842)"
       d="m 308.69922,421.39844 -6.80078,0"
       style="fill:none;stroke:#000000;stroke-width:0.87730002;stroke-linecap:butt;stroke-linejoin:round;stroke-miterlimit:10;stroke-opacity:1" />
  </g>
  <g
     id="g3399"
     clip-rule="nonzero"
     clip-path="url(#clip3)"
     transform="translate(-286.5,-407.80078)">
    <path
       inkscape:connector-curvature="0"
       id="path3401"
       transform="matrix(1,0,0,-1,0,842)"
       d="m 292.80078,421.39844 -6.60156,0"
       style="fill:none;stroke:#000000;stroke-width:0.87730002;stroke-linecap:butt;stroke-linejoin:round;stroke-miterlimit:10;stroke-opacity:1" />
  </g>
  <g
     id="g3403"
     clip-rule="nonzero"
     clip-path="url(#clip4)"
     transform="translate(-286.5,-407.80078)">
    <path
       inkscape:connector-curvature="0"
       id="path3405"
       transform="matrix(1,0,0,-1,0,842)"
       d="m 297.19922,434.69922 0,-6.80078"
       style="fill:none;stroke:#000000;stroke-width:0.87730002;stroke-linecap:butt;stroke-linejoin:round;stroke-miterlimit:10;stroke-opacity:1" />
  </g>
  <g
     id="g3407"
     clip-rule="nonzero"
     clip-path="url(#clip5)"
     transform="translate(-286.5,-407.80078)">
    <path
       inkscape:connector-curvature="0"
       id="path3409"
       transform="matrix(1,0,0,-1,0,842)"
       d="m 297.19922,414.60156 0,-6.5"
       style="fill:none;stroke:#000000;stroke-width:0.87730002;stroke-linecap:butt;stroke-linejoin:round;stroke-miterlimit:10;stroke-opacity:1" />
  </g>
</svg>
