<?xml version="1.0" encoding="UTF-8" standalone="no"?>
<svg
   xmlns:dc="http://purl.org/dc/elements/1.1/"
   xmlns:cc="http://creativecommons.org/ns#"
   xmlns:rdf="http://www.w3.org/1999/02/22-rdf-syntax-ns#"
   xmlns:svg="http://www.w3.org/2000/svg"
   xmlns="http://www.w3.org/2000/svg"
   xmlns:sodipodi="http://sodipodi.sourceforge.net/DTD/sodipodi-0.dtd"
   xmlns:inkscape="http://www.inkscape.org/namespaces/inkscape"
   width="14.375"
   height="5.1269498"
   viewBox="0 0 11.5 4.1015599"
   version="1.2"
   id="svg3339"
   inkscape:version="0.48.4 r9939"
   sodipodi:docname="25.83.svg">
  <metadata
     id="metadata3367">
    <rdf:RDF>
      <cc:Work
         rdf:about="">
        <dc:format>image/svg+xml</dc:format>
        <dc:type
           rdf:resource="http://purl.org/dc/dcmitype/StillImage" />
      </cc:Work>
    </rdf:RDF>
  </metadata>
  <sodipodi:namedview
     pagecolor="#ffffff"
     bordercolor="#666666"
     borderopacity="1"
     objecttolerance="10"
     gridtolerance="10"
     guidetolerance="10"
     inkscape:pageopacity="0"
     inkscape:pageshadow="2"
     inkscape:window-width="640"
     inkscape:window-height="480"
     id="namedview3365"
     showgrid="false"
     inkscape:zoom="0.22422803"
     inkscape:cx="7.124025"
     inkscape:cy="2.6269506"
     inkscape:window-x="0"
     inkscape:window-y="27"
     inkscape:window-maximized="0"
     inkscape:current-layer="svg3339" />
  <defs
     id="defs3341">
    <clipPath
       id="clip1">
      <path
         d="m 0,0.101562 595,0 0,841.796878 -595,0 z m 0,0"
         id="path3344"
         inkscape:connector-curvature="0" />
    </clipPath>
    <clipPath
       id="clip2">
      <path
         d="m 295,419 5,0 0,4.19922 -5,0 z m 0,0"
         id="path3347"
         inkscape:connector-curvature="0" />
    </clipPath>
    <clipPath
       id="clip3">
      <path
         d="m 291.80078,420 11.5,0 0,2 -11.5,0 z m 0,0"
         id="path3350"
         inkscape:connector-curvature="0" />
    </clipPath>
  </defs>
  <g
     id="g3357"
     clip-rule="nonzero"
     clip-path="url(#clip2)"
     transform="translate(-291.80078,-419)">
    <path
       inkscape:connector-curvature="0"
       id="path3359"
       d="m 299.80078,420.80078 c 0,1.09766 -0.90234,2.30078 -2,2.30078 -1.19922,0 -2.10156,-1.20312 -2.10156,-2.30078 0,-0.60156 0.90234,-1.80078 2.10156,-1.80078 1.09766,0 2,1.19922 2,1.80078 z m 0,0"
       style="fill:#000000;fill-opacity:1;fill-rule:evenodd;stroke:none" />
  </g>
  <g
     id="g3361"
     clip-rule="nonzero"
     clip-path="url(#clip3)"
     transform="translate(-291.80078,-419)">
    <path
       inkscape:connector-curvature="0"
       id="path3363"
       transform="matrix(1,0,0,-1,0,842)"
       d="m 291.89844,420.89844 11.80078,0"
       style="fill:none;stroke:#000000;stroke-width:0.87730002;stroke-linecap:butt;stroke-linejoin:round;stroke-miterlimit:10;stroke-opacity:1" />
  </g>
</svg>
