<?xml version="1.0" encoding="UTF-8" standalone="no"?>
<svg
   xmlns:dc="http://purl.org/dc/elements/1.1/"
   xmlns:cc="http://creativecommons.org/ns#"
   xmlns:rdf="http://www.w3.org/1999/02/22-rdf-syntax-ns#"
   xmlns:svg="http://www.w3.org/2000/svg"
   xmlns="http://www.w3.org/2000/svg"
   xmlns:sodipodi="http://sodipodi.sourceforge.net/DTD/sodipodi-0.dtd"
   xmlns:inkscape="http://www.inkscape.org/namespaces/inkscape"
   width="23.247074"
   height="23.125"
   viewBox="0 0 18.597659 18.5"
   version="1.2"
   id="svg3293"
   inkscape:version="0.48.4 r9939"
   sodipodi:docname="25.82.svg">
  <metadata
     id="metadata3337">
    <rdf:RDF>
      <cc:Work
         rdf:about="">
        <dc:format>image/svg+xml</dc:format>
        <dc:type
           rdf:resource="http://purl.org/dc/dcmitype/StillImage" />
      </cc:Work>
    </rdf:RDF>
  </metadata>
  <sodipodi:namedview
     pagecolor="#ffffff"
     bordercolor="#666666"
     borderopacity="1"
     objecttolerance="10"
     gridtolerance="10"
     guidetolerance="10"
     inkscape:pageopacity="0"
     inkscape:pageshadow="2"
     inkscape:window-width="640"
     inkscape:window-height="480"
     id="namedview3335"
     showgrid="false"
     inkscape:zoom="0.22422803"
     inkscape:cx="11.499025"
     inkscape:cy="11.625976"
     inkscape:window-x="325"
     inkscape:window-y="263"
     inkscape:window-maximized="0"
     inkscape:current-layer="svg3293" />
  <defs
     id="defs3295">
    <clipPath
       id="clip1">
      <path
         d="m 0,0.101562 595,0 0,841.796878 -595,0 z m 0,0"
         id="path3298"
         inkscape:connector-curvature="0" />
    </clipPath>
    <clipPath
       id="clip2">
      <path
         d="m 297,411.80078 2,0 0,6.19922 -2,0 z m 0,0"
         id="path3301"
         inkscape:connector-curvature="0" />
    </clipPath>
    <clipPath
       id="clip3">
      <path
         d="m 297,424 2,0 0,6.30078 -2,0 z m 0,0"
         id="path3304"
         inkscape:connector-curvature="0" />
    </clipPath>
    <clipPath
       id="clip4">
      <path
         d="m 288.30078,420 6.69922,0 0,2 -6.69922,0 z m 0,0"
         id="path3307"
         inkscape:connector-curvature="0" />
    </clipPath>
    <clipPath
       id="clip5">
      <path
         d="m 301,420 5.89844,0 0,2 L 301,422 z m 0,0"
         id="path3310"
         inkscape:connector-curvature="0" />
    </clipPath>
  </defs>
  <path
     inkscape:connector-curvature="0"
     id="path3317"
     d="m 12.999998,9.300782 c 0,1.69922 -1.5,3.19922 -3.4999998,3.19922 -1.80078,0 -3.30078,-1.5 -3.30078,-3.19922 0,-2.10156 1.5,-3.60156 3.30078,-3.60156 1.9999998,0 3.4999998,1.5 3.4999998,3.60156 z m 0,0"
     style="fill:none;stroke:#000000;stroke-width:0.87730002;stroke-linecap:butt;stroke-linejoin:round;stroke-miterlimit:10;stroke-opacity:1" />
  <g
     id="g3319"
     clip-rule="nonzero"
     clip-path="url(#clip2)"
     transform="translate(-288.30078,-411.80078)">
    <path
       inkscape:connector-curvature="0"
       id="path3321"
       transform="matrix(1,0,0,-1,0,842)"
       d="m 297.80078,424.80078 0,5.59766"
       style="fill:none;stroke:#000000;stroke-width:0.87730002;stroke-linecap:butt;stroke-linejoin:round;stroke-miterlimit:10;stroke-opacity:1" />
  </g>
  <g
     id="g3323"
     clip-rule="nonzero"
     clip-path="url(#clip3)"
     transform="translate(-288.30078,-411.80078)">
    <path
       inkscape:connector-curvature="0"
       id="path3325"
       transform="matrix(1,0,0,-1,0,842)"
       d="m 297.80078,411.80078 0,5.59766"
       style="fill:none;stroke:#000000;stroke-width:0.87730002;stroke-linecap:butt;stroke-linejoin:round;stroke-miterlimit:10;stroke-opacity:1" />
  </g>
  <g
     id="g3327"
     clip-rule="nonzero"
     clip-path="url(#clip4)"
     transform="translate(-288.30078,-411.80078)">
    <path
       inkscape:connector-curvature="0"
       id="path3329"
       transform="matrix(1,0,0,-1,0,842)"
       d="m 294.19922,421.19922 -5.59766,0"
       style="fill:none;stroke:#000000;stroke-width:0.87730002;stroke-linecap:butt;stroke-linejoin:round;stroke-miterlimit:10;stroke-opacity:1" />
  </g>
  <g
     id="g3331"
     clip-rule="nonzero"
     clip-path="url(#clip5)"
     transform="translate(-288.30078,-411.80078)">
    <path
       inkscape:connector-curvature="0"
       id="path3333"
       transform="matrix(1,0,0,-1,0,842)"
       d="m 307.19922,421.19922 -5.59766,0"
       style="fill:none;stroke:#000000;stroke-width:0.87730002;stroke-linecap:butt;stroke-linejoin:round;stroke-miterlimit:10;stroke-opacity:1" />
  </g>
</svg>
